<?xml version="1.0" encoding="UTF-8" standalone="no"?>
<!DOCTYPE svg PUBLIC "-//W3C//DTD SVG 1.1//EN"
 "http://www.w3.org/Graphics/SVG/1.1/DTD/svg11.dtd">
<!-- Generated by graphviz version 12.2.1 (20241206.2353)
 -->
<!-- Title: G Pages: 1 -->
<svg width="331pt" height="187pt"
 viewBox="0.00 0.00 330.68 186.84" xmlns="http://www.w3.org/2000/svg" xmlns:xlink="http://www.w3.org/1999/xlink">
<g id="graph0" class="graph" transform="scale(1 1) rotate(0) translate(4 182.84)">
<title>G</title>
<polygon fill="white" stroke="none" points="-4,4 -4,-182.84 326.68,-182.84 326.68,4 -4,4"/>
<!-- node1 -->
<g id="node1" class="node">
<title>node1</title>
<ellipse fill="none" stroke="black" cx="26.34" cy="-130.5" rx="26.34" ry="26.34"/>
<text text-anchor="middle" x="26.34" y="-126.8" font-family="Times,serif" font-size="11.00">node1</text>
</g>
<!-- node3 -->
<g id="node3" class="node">
<title>node3</title>
<ellipse fill="none" stroke="black" cx="115.68" cy="-81.5" rx="26.34" ry="26.34"/>
<text text-anchor="middle" x="115.68" y="-77.8" font-family="Times,serif" font-size="11.00">node3</text>
</g>
<!-- node1&#45;&gt;node3 -->
<g id="edge1" class="edge">
<title>node1&#45;&gt;node3</title>
<path fill="none" stroke="black" d="M49.83,-117.88C59.71,-112.34 71.5,-105.72 82.3,-99.66"/>
<polygon fill="black" stroke="black" points="83.93,-102.76 90.94,-94.82 80.51,-96.66 83.93,-102.76"/>
</g>
<!-- node1_label -->
<g id="node6" class="node">
<title>node1_label</title>
<polygon fill="none" stroke="black" points="88.68,-126.5 88.68,-162.5 142.68,-162.5 142.68,-126.5 88.68,-126.5"/>
<text text-anchor="middle" x="115.68" y="-141.05" font-family="Times,serif" font-size="11.00"> </text>
</g>
<!-- node1&#45;&gt;node1_label -->
<g id="edge5" class="edge">
<title>node1&#45;&gt;node1_label</title>
<path fill="none" stroke="black" d="M52.6,-134.55C60.2,-135.77 68.71,-137.13 76.94,-138.45"/>
<polygon fill="black" stroke="black" points="76.33,-141.9 86.76,-140.03 77.44,-134.99 76.33,-141.9"/>
</g>
<!-- node2 -->
<g id="node2" class="node">
<title>node2</title>
<ellipse fill="none" stroke="black" cx="26.34" cy="-45.5" rx="26.34" ry="26.34"/>
<text text-anchor="middle" x="26.34" y="-41.8" font-family="Times,serif" font-size="11.00">node2</text>
</g>
<!-- node2&#45;&gt;node3 -->
<g id="edge2" class="edge">
<title>node2&#45;&gt;node3</title>
<path fill="none" stroke="black" d="M51.2,-55.34C60.16,-59.03 70.52,-63.3 80.24,-67.31"/>
<polygon fill="black" stroke="black" points="78.86,-70.52 89.44,-71.1 81.53,-64.05 78.86,-70.52"/>
</g>
<!-- node2_label -->
<g id="node7" class="node">
<title>node2_label</title>
<polygon fill="none" stroke="black" points="88.68,-0.5 88.68,-36.5 142.68,-36.5 142.68,-0.5 88.68,-0.5"/>
<text text-anchor="middle" x="115.68" y="-15.05" font-family="Times,serif" font-size="11.00"> </text>
</g>
<!-- node2&#45;&gt;node2_label -->
<g id="edge6" class="edge">
<title>node2&#45;&gt;node2_label</title>
<path fill="none" stroke="black" d="M51.67,-37.98C59.69,-35.5 68.8,-32.68 77.55,-29.98"/>
<polygon fill="black" stroke="black" points="78.37,-33.39 86.89,-27.09 76.3,-26.7 78.37,-33.39"/>
</g>
<!-- node4 -->
<g id="node4" class="node">
<title>node4</title>
<ellipse fill="none" stroke="black" cx="205.68" cy="-152.5" rx="26.34" ry="26.34"/>
<text text-anchor="middle" x="205.68" y="-148.8" font-family="Times,serif" font-size="11.00">node4</text>
</g>
<!-- node3&#45;&gt;node4 -->
<g id="edge3" class="edge">
<title>node3&#45;&gt;node4</title>
<path fill="none" stroke="black" d="M136.64,-97.61C148.15,-106.9 162.82,-118.73 175.59,-129.03"/>
<polygon fill="black" stroke="black" points="173.32,-131.7 183.3,-135.26 177.72,-126.25 173.32,-131.7"/>
</g>
<!-- node5 -->
<g id="node5" class="node">
<title>node5</title>
<ellipse fill="none" stroke="black" cx="205.68" cy="-81.5" rx="26.34" ry="26.34"/>
<text text-anchor="middle" x="205.68" y="-77.8" font-family="Times,serif" font-size="11.00">node5</text>
</g>
<!-- node3&#45;&gt;node5 -->
<g id="edge4" class="edge">
<title>node3&#45;&gt;node5</title>
<path fill="none" stroke="black" d="M142.13,-81.5C150.09,-81.5 159.03,-81.5 167.62,-81.5"/>
<polygon fill="black" stroke="black" points="167.46,-85 177.46,-81.5 167.46,-78 167.46,-85"/>
</g>
<!-- node3_label -->
<g id="node8" class="node">
<title>node3_label</title>
<polygon fill="none" stroke="black" points="178.68,-0.5 178.68,-36.5 232.68,-36.5 232.68,-0.5 178.68,-0.5"/>
<text text-anchor="middle" x="205.68" y="-15.05" font-family="Times,serif" font-size="11.00"> </text>
</g>
<!-- node3&#45;&gt;node3_label -->
<g id="edge7" class="edge">
<title>node3&#45;&gt;node3_label</title>
<path fill="none" stroke="black" d="M137.53,-66.57C147.12,-59.7 158.77,-51.37 169.64,-43.58"/>
<polygon fill="black" stroke="black" points="171.61,-46.47 177.71,-37.81 167.54,-40.78 171.61,-46.47"/>
</g>
<!-- node4_label -->
<g id="node9" class="node">
<title>node4_label</title>
<polygon fill="none" stroke="black" points="268.68,-134.5 268.68,-170.5 322.68,-170.5 322.68,-134.5 268.68,-134.5"/>
<text text-anchor="middle" x="295.68" y="-149.05" font-family="Times,serif" font-size="11.00"> </text>
</g>
<!-- node4&#45;&gt;node4_label -->
<g id="edge8" class="edge">
<title>node4&#45;&gt;node4_label</title>
<path fill="none" stroke="black" d="M232.13,-152.5C239.86,-152.5 248.52,-152.5 256.88,-152.5"/>
<polygon fill="black" stroke="black" points="256.85,-156 266.85,-152.5 256.85,-149 256.85,-156"/>
</g>
<!-- node5_label -->
<g id="node10" class="node">
<title>node5_label</title>
<polygon fill="none" stroke="black" points="268.68,-63.5 268.68,-99.5 322.68,-99.5 322.68,-63.5 268.68,-63.5"/>
<text text-anchor="middle" x="295.68" y="-78.05" font-family="Times,serif" font-size="11.00"> </text>
</g>
<!-- node5&#45;&gt;node5_label -->
<g id="edge9" class="edge">
<title>node5&#45;&gt;node5_label</title>
<path fill="none" stroke="black" d="M232.13,-81.5C239.86,-81.5 248.52,-81.5 256.88,-81.5"/>
<polygon fill="black" stroke="black" points="256.85,-85 266.85,-81.5 256.85,-78 256.85,-85"/>
</g>
</g>
</svg>
