<?xml version="1.0" encoding="UTF-8" standalone="no"?>
<!DOCTYPE svg PUBLIC "-//W3C//DTD SVG 1.1//EN"
 "http://www.w3.org/Graphics/SVG/1.1/DTD/svg11.dtd">
<!-- Generated by graphviz version 12.2.1 (20241206.2353)
 -->
<!-- Title: G Pages: 1 -->
<svg width="553pt" height="1784pt"
 viewBox="0.00 0.00 552.68 1784.25" xmlns="http://www.w3.org/2000/svg" xmlns:xlink="http://www.w3.org/1999/xlink">
<g id="graph0" class="graph" transform="scale(1 1) rotate(0) translate(4 1780.25)">
<title>G</title>
<polygon fill="white" stroke="none" points="-4,4 -4,-1780.25 548.68,-1780.25 548.68,4 -4,4"/>
<!-- node1 -->
<g id="node1" class="node">
<title>node1</title>
<ellipse fill="none" stroke="black" cx="26.34" cy="-700" rx="26.34" ry="26.34"/>
<text text-anchor="middle" x="26.34" y="-696.3" font-family="Times,serif" font-size="11.00">node1</text>
</g>
<!-- node2 -->
<g id="node2" class="node">
<title>node2</title>
<ellipse fill="none" stroke="black" cx="191.8" cy="-948" rx="26.34" ry="26.34"/>
<text text-anchor="middle" x="191.8" y="-944.3" font-family="Times,serif" font-size="11.00">node2</text>
</g>
<!-- node1&#45;&gt;node2 -->
<g id="edge1" class="edge">
<title>node1&#45;&gt;node2</title>
<path fill="none" stroke="black" d="M27.49,-726.72C29.21,-771.24 39.07,-860.86 88.68,-913 105.76,-930.96 132.44,-939.7 154.25,-943.96"/>
<polygon fill="black" stroke="black" points="153.52,-947.38 163.96,-945.6 154.68,-940.48 153.52,-947.38"/>
</g>
<!-- node1_label -->
<g id="node3" class="node">
<title>node1_label</title>
<polygon fill="none" stroke="black" points="88.68,-0.5 88.68,-903.5 294.93,-903.5 294.93,-0.5 88.68,-0.5"/>
<text text-anchor="middle" x="191.43" y="-889.05" font-family="Times,serif" font-size="11.00">* Encoder Layer *</text>
<polyline fill="none" stroke="black" points="88.68,-882 294.93,-882"/>
<text text-anchor="middle" x="191.8" y="-867.55" font-family="Times,serif" font-size="11.00">* Encoder *</text>
<polyline fill="none" stroke="black" points="88.68,-860.5 294.93,-860.5"/>
<text text-anchor="middle" x="191.8" y="-846.05" font-family="Times,serif" font-size="11.00">* MultiHeadAttention (M1) *</text>
<polyline fill="none" stroke="black" points="88.68,-839 294.93,-839"/>
<text text-anchor="middle" x="191.55" y="-824.55" font-family="Times,serif" font-size="11.00">* Head 0 *</text>
<polyline fill="none" stroke="black" points="88.68,-817.5 294.93,-817.5"/>
<text text-anchor="middle" x="191.8" y="-803.05" font-family="Times,serif" font-size="11.00">* Attention *</text>
<polyline fill="none" stroke="black" points="88.68,-796 294.93,-796"/>
<text text-anchor="middle" x="191.55" y="-781.55" font-family="Times,serif" font-size="11.00">* Linear Transformation (Q) *</text>
<polyline fill="none" stroke="black" points="88.68,-774.5 294.93,-774.5"/>
<text text-anchor="middle" x="142.55" y="-760.05" font-family="Times,serif" font-size="11.00">Parameters=15</text>
<polyline fill="none" stroke="black" points="196.43,-753 196.43,-774.5"/>
<text text-anchor="middle" x="245.43" y="-760.05" font-family="Times,serif" font-size="11.00">BatchSize=5</text>
<polyline fill="none" stroke="black" points="88.68,-753 294.93,-753"/>
<text text-anchor="middle" x="138.05" y="-738.55" font-family="Times,serif" font-size="11.00">Input=(3 x 4)</text>
<polyline fill="none" stroke="black" points="187.43,-731.5 187.43,-753"/>
<text text-anchor="middle" x="241.05" y="-738.55" font-family="Times,serif" font-size="11.00">Output=(3 x 3)</text>
<polyline fill="none" stroke="black" points="88.68,-731.5 294.93,-731.5"/>
<text text-anchor="middle" x="191.55" y="-717.05" font-family="Times,serif" font-size="11.00">* Linear Transformation (K) *</text>
<polyline fill="none" stroke="black" points="88.68,-710 294.93,-710"/>
<text text-anchor="middle" x="142.55" y="-695.55" font-family="Times,serif" font-size="11.00">Parameters=15</text>
<polyline fill="none" stroke="black" points="196.43,-688.5 196.43,-710"/>
<text text-anchor="middle" x="245.43" y="-695.55" font-family="Times,serif" font-size="11.00">BatchSize=5</text>
<polyline fill="none" stroke="black" points="88.68,-688.5 294.93,-688.5"/>
<text text-anchor="middle" x="138.05" y="-674.05" font-family="Times,serif" font-size="11.00">Input=(3 x 4)</text>
<polyline fill="none" stroke="black" points="187.43,-667 187.43,-688.5"/>
<text text-anchor="middle" x="241.05" y="-674.05" font-family="Times,serif" font-size="11.00">Output=(3 x 3)</text>
<polyline fill="none" stroke="black" points="88.68,-667 294.93,-667"/>
<text text-anchor="middle" x="191.55" y="-652.55" font-family="Times,serif" font-size="11.00">* Linear Transformation (V) *</text>
<polyline fill="none" stroke="black" points="88.68,-645.5 294.93,-645.5"/>
<text text-anchor="middle" x="142.55" y="-631.05" font-family="Times,serif" font-size="11.00">Parameters=15</text>
<polyline fill="none" stroke="black" points="196.43,-624 196.43,-645.5"/>
<text text-anchor="middle" x="245.43" y="-631.05" font-family="Times,serif" font-size="11.00">BatchSize=5</text>
<polyline fill="none" stroke="black" points="88.68,-624 294.93,-624"/>
<text text-anchor="middle" x="138.05" y="-609.55" font-family="Times,serif" font-size="11.00">Input=(3 x 4)</text>
<polyline fill="none" stroke="black" points="187.43,-602.5 187.43,-624"/>
<text text-anchor="middle" x="241.05" y="-609.55" font-family="Times,serif" font-size="11.00">Output=(3 x 3)</text>
<polyline fill="none" stroke="black" points="88.68,-602.5 294.93,-602.5"/>
<text text-anchor="middle" x="191.8" y="-588.05" font-family="Times,serif" font-size="11.00"> </text>
<polyline fill="none" stroke="black" points="88.68,-581 294.93,-581"/>
<text text-anchor="middle" x="191.55" y="-566.55" font-family="Times,serif" font-size="11.00">* Head 1 *</text>
<polyline fill="none" stroke="black" points="88.68,-559.5 294.93,-559.5"/>
<text text-anchor="middle" x="191.8" y="-545.05" font-family="Times,serif" font-size="11.00">* Attention *</text>
<polyline fill="none" stroke="black" points="88.68,-538 294.93,-538"/>
<text text-anchor="middle" x="191.55" y="-523.55" font-family="Times,serif" font-size="11.00">* Linear Transformation (Q) *</text>
<polyline fill="none" stroke="black" points="88.68,-516.5 294.93,-516.5"/>
<text text-anchor="middle" x="142.55" y="-502.05" font-family="Times,serif" font-size="11.00">Parameters=15</text>
<polyline fill="none" stroke="black" points="196.43,-495 196.43,-516.5"/>
<text text-anchor="middle" x="245.43" y="-502.05" font-family="Times,serif" font-size="11.00">BatchSize=5</text>
<polyline fill="none" stroke="black" points="88.68,-495 294.93,-495"/>
<text text-anchor="middle" x="138.05" y="-480.55" font-family="Times,serif" font-size="11.00">Input=(3 x 4)</text>
<polyline fill="none" stroke="black" points="187.43,-473.5 187.43,-495"/>
<text text-anchor="middle" x="241.05" y="-480.55" font-family="Times,serif" font-size="11.00">Output=(3 x 3)</text>
<polyline fill="none" stroke="black" points="88.68,-473.5 294.93,-473.5"/>
<text text-anchor="middle" x="191.55" y="-459.05" font-family="Times,serif" font-size="11.00">* Linear Transformation (K) *</text>
<polyline fill="none" stroke="black" points="88.68,-452 294.93,-452"/>
<text text-anchor="middle" x="142.55" y="-437.55" font-family="Times,serif" font-size="11.00">Parameters=15</text>
<polyline fill="none" stroke="black" points="196.43,-430.5 196.43,-452"/>
<text text-anchor="middle" x="245.43" y="-437.55" font-family="Times,serif" font-size="11.00">BatchSize=5</text>
<polyline fill="none" stroke="black" points="88.68,-430.5 294.93,-430.5"/>
<text text-anchor="middle" x="138.05" y="-416.05" font-family="Times,serif" font-size="11.00">Input=(3 x 4)</text>
<polyline fill="none" stroke="black" points="187.43,-409 187.43,-430.5"/>
<text text-anchor="middle" x="241.05" y="-416.05" font-family="Times,serif" font-size="11.00">Output=(3 x 3)</text>
<polyline fill="none" stroke="black" points="88.68,-409 294.93,-409"/>
<text text-anchor="middle" x="191.55" y="-394.55" font-family="Times,serif" font-size="11.00">* Linear Transformation (V) *</text>
<polyline fill="none" stroke="black" points="88.68,-387.5 294.93,-387.5"/>
<text text-anchor="middle" x="142.55" y="-373.05" font-family="Times,serif" font-size="11.00">Parameters=15</text>
<polyline fill="none" stroke="black" points="196.43,-366 196.43,-387.5"/>
<text text-anchor="middle" x="245.43" y="-373.05" font-family="Times,serif" font-size="11.00">BatchSize=5</text>
<polyline fill="none" stroke="black" points="88.68,-366 294.93,-366"/>
<text text-anchor="middle" x="138.05" y="-351.55" font-family="Times,serif" font-size="11.00">Input=(3 x 4)</text>
<polyline fill="none" stroke="black" points="187.43,-344.5 187.43,-366"/>
<text text-anchor="middle" x="241.05" y="-351.55" font-family="Times,serif" font-size="11.00">Output=(3 x 3)</text>
<polyline fill="none" stroke="black" points="88.68,-344.5 294.93,-344.5"/>
<text text-anchor="middle" x="191.8" y="-330.05" font-family="Times,serif" font-size="11.00"> </text>
<polyline fill="none" stroke="black" points="88.68,-323 294.93,-323"/>
<text text-anchor="middle" x="191.55" y="-308.55" font-family="Times,serif" font-size="11.00">* Layer Normalization (add_norm1) *</text>
<polyline fill="none" stroke="black" points="88.68,-301.5 294.93,-301.5"/>
<text text-anchor="middle" x="140.93" y="-287.05" font-family="Times,serif" font-size="11.00">Parameters=6</text>
<polyline fill="none" stroke="black" points="193.18,-280 193.18,-301.5"/>
<text text-anchor="middle" x="243.68" y="-287.05" font-family="Times,serif" font-size="11.00">BatchSize=5</text>
<polyline fill="none" stroke="black" points="88.68,-280 294.93,-280"/>
<text text-anchor="middle" x="138.05" y="-265.55" font-family="Times,serif" font-size="11.00">Input=(3 x 4)</text>
<polyline fill="none" stroke="black" points="187.43,-258.5 187.43,-280"/>
<text text-anchor="middle" x="241.05" y="-265.55" font-family="Times,serif" font-size="11.00">Output=(3 x 4)</text>
<polyline fill="none" stroke="black" points="88.68,-258.5 294.93,-258.5"/>
<text text-anchor="middle" x="191.43" y="-244.05" font-family="Times,serif" font-size="11.00">* FeedForward (F1) *</text>
<polyline fill="none" stroke="black" points="88.68,-237 294.93,-237"/>
<text text-anchor="middle" x="191.43" y="-222.55" font-family="Times,serif" font-size="11.00">* Linear Transformation (L1) *</text>
<polyline fill="none" stroke="black" points="88.68,-215.5 294.93,-215.5"/>
<text text-anchor="middle" x="142.55" y="-201.05" font-family="Times,serif" font-size="11.00">Parameters=20</text>
<polyline fill="none" stroke="black" points="196.43,-194 196.43,-215.5"/>
<text text-anchor="middle" x="245.43" y="-201.05" font-family="Times,serif" font-size="11.00">BatchSize=5</text>
<polyline fill="none" stroke="black" points="88.68,-194 294.93,-194"/>
<text text-anchor="middle" x="138.05" y="-179.55" font-family="Times,serif" font-size="11.00">Input=(3 x 4)</text>
<polyline fill="none" stroke="black" points="187.43,-172.5 187.43,-194"/>
<text text-anchor="middle" x="241.05" y="-179.55" font-family="Times,serif" font-size="11.00">Output=(3 x 4)</text>
<polyline fill="none" stroke="black" points="88.68,-172.5 294.93,-172.5"/>
<text text-anchor="middle" x="191.8" y="-158.05" font-family="Times,serif" font-size="11.00">* Activation (leakyrelu)*</text>
<polyline fill="none" stroke="black" points="88.68,-151 294.93,-151"/>
<text text-anchor="middle" x="110.55" y="-136.55" font-family="Times,serif" font-size="11.00">dInput</text>
<polyline fill="none" stroke="black" points="132.43,-129.5 132.43,-151"/>
<text text-anchor="middle" x="173.43" y="-136.55" font-family="Times,serif" font-size="11.00">min=&#45;0.012854</text>
<polyline fill="none" stroke="black" points="214.43,-129.5 214.43,-151"/>
<text text-anchor="middle" x="254.68" y="-136.55" font-family="Times,serif" font-size="11.00">max=0.013516</text>
<polyline fill="none" stroke="black" points="88.68,-129.5 294.93,-129.5"/>
<text text-anchor="middle" x="191.43" y="-115.05" font-family="Times,serif" font-size="11.00">* Linear Transformation (L2) *</text>
<polyline fill="none" stroke="black" points="88.68,-108 294.93,-108"/>
<text text-anchor="middle" x="142.55" y="-93.55" font-family="Times,serif" font-size="11.00">Parameters=20</text>
<polyline fill="none" stroke="black" points="196.43,-86.5 196.43,-108"/>
<text text-anchor="middle" x="245.43" y="-93.55" font-family="Times,serif" font-size="11.00">BatchSize=5</text>
<polyline fill="none" stroke="black" points="88.68,-86.5 294.93,-86.5"/>
<text text-anchor="middle" x="138.05" y="-72.05" font-family="Times,serif" font-size="11.00">Input=(3 x 4)</text>
<polyline fill="none" stroke="black" points="187.43,-65 187.43,-86.5"/>
<text text-anchor="middle" x="241.05" y="-72.05" font-family="Times,serif" font-size="11.00">Output=(3 x 4)</text>
<polyline fill="none" stroke="black" points="88.68,-65 294.93,-65"/>
<text text-anchor="middle" x="191.55" y="-50.55" font-family="Times,serif" font-size="11.00">* Layer Normalization (add_norm2) *</text>
<polyline fill="none" stroke="black" points="88.68,-43.5 294.93,-43.5"/>
<text text-anchor="middle" x="140.93" y="-29.05" font-family="Times,serif" font-size="11.00">Parameters=6</text>
<polyline fill="none" stroke="black" points="193.18,-22 193.18,-43.5"/>
<text text-anchor="middle" x="243.68" y="-29.05" font-family="Times,serif" font-size="11.00">BatchSize=5</text>
<polyline fill="none" stroke="black" points="88.68,-22 294.93,-22"/>
<text text-anchor="middle" x="138.05" y="-7.55" font-family="Times,serif" font-size="11.00">Input=(3 x 4)</text>
<polyline fill="none" stroke="black" points="187.43,-0.5 187.43,-22"/>
<text text-anchor="middle" x="241.05" y="-7.55" font-family="Times,serif" font-size="11.00">Output=(3 x 4)</text>
</g>
<!-- node1&#45;&gt;node1_label -->
<g id="edge2" class="edge">
<title>node1&#45;&gt;node1_label</title>
<path fill="none" stroke="black" d="M41.56,-678.43C51.58,-663.22 66.03,-641.3 82.03,-617.02"/>
<polygon fill="black" stroke="black" points="84.82,-619.14 87.41,-608.87 78.98,-615.29 84.82,-619.14"/>
</g>
<!-- node2_label -->
<g id="node4" class="node">
<title>node2_label</title>
<polygon fill="none" stroke="black" points="330.93,-120.25 330.93,-1775.75 544.68,-1775.75 544.68,-120.25 330.93,-120.25"/>
<text text-anchor="middle" x="437.43" y="-1761.3" font-family="Times,serif" font-size="11.00">* Decoder Layer *</text>
<polyline fill="none" stroke="black" points="330.93,-1754.25 544.68,-1754.25"/>
<text text-anchor="middle" x="437.8" y="-1739.8" font-family="Times,serif" font-size="11.00">* Decoder *</text>
<polyline fill="none" stroke="black" points="330.93,-1732.75 544.68,-1732.75"/>
<text text-anchor="middle" x="437.68" y="-1718.3" font-family="Times,serif" font-size="11.00">* MultiHeadAttention (Masked) *</text>
<polyline fill="none" stroke="black" points="330.93,-1711.25 544.68,-1711.25"/>
<text text-anchor="middle" x="437.8" y="-1696.8" font-family="Times,serif" font-size="11.00">* Head 0 *</text>
<polyline fill="none" stroke="black" points="330.93,-1689.75 544.68,-1689.75"/>
<text text-anchor="middle" x="437.55" y="-1675.3" font-family="Times,serif" font-size="11.00">* Attention *</text>
<polyline fill="none" stroke="black" points="330.93,-1668.25 544.68,-1668.25"/>
<text text-anchor="middle" x="437.8" y="-1653.8" font-family="Times,serif" font-size="11.00">* Linear Transformation (Q) *</text>
<polyline fill="none" stroke="black" points="330.93,-1646.75 544.68,-1646.75"/>
<text text-anchor="middle" x="386.8" y="-1632.3" font-family="Times,serif" font-size="11.00">Parameters=15</text>
<polyline fill="none" stroke="black" points="442.68,-1625.25 442.68,-1646.75"/>
<text text-anchor="middle" x="493.68" y="-1632.3" font-family="Times,serif" font-size="11.00">BatchSize=5</text>
<polyline fill="none" stroke="black" points="330.93,-1625.25 544.68,-1625.25"/>
<text text-anchor="middle" x="382.3" y="-1610.8" font-family="Times,serif" font-size="11.00">Input=(3 x 4)</text>
<polyline fill="none" stroke="black" points="433.68,-1603.75 433.68,-1625.25"/>
<text text-anchor="middle" x="488.8" y="-1610.8" font-family="Times,serif" font-size="11.00">Output=(3 x 3)</text>
<polyline fill="none" stroke="black" points="330.93,-1603.75 544.68,-1603.75"/>
<text text-anchor="middle" x="437.8" y="-1589.3" font-family="Times,serif" font-size="11.00">* Linear Transformation (K) *</text>
<polyline fill="none" stroke="black" points="330.93,-1582.25 544.68,-1582.25"/>
<text text-anchor="middle" x="386.8" y="-1567.8" font-family="Times,serif" font-size="11.00">Parameters=15</text>
<polyline fill="none" stroke="black" points="442.68,-1560.75 442.68,-1582.25"/>
<text text-anchor="middle" x="493.68" y="-1567.8" font-family="Times,serif" font-size="11.00">BatchSize=5</text>
<polyline fill="none" stroke="black" points="330.93,-1560.75 544.68,-1560.75"/>
<text text-anchor="middle" x="382.3" y="-1546.3" font-family="Times,serif" font-size="11.00">Input=(3 x 4)</text>
<polyline fill="none" stroke="black" points="433.68,-1539.25 433.68,-1560.75"/>
<text text-anchor="middle" x="488.8" y="-1546.3" font-family="Times,serif" font-size="11.00">Output=(3 x 3)</text>
<polyline fill="none" stroke="black" points="330.93,-1539.25 544.68,-1539.25"/>
<text text-anchor="middle" x="437.8" y="-1524.8" font-family="Times,serif" font-size="11.00">* Linear Transformation (V) *</text>
<polyline fill="none" stroke="black" points="330.93,-1517.75 544.68,-1517.75"/>
<text text-anchor="middle" x="386.8" y="-1503.3" font-family="Times,serif" font-size="11.00">Parameters=15</text>
<polyline fill="none" stroke="black" points="442.68,-1496.25 442.68,-1517.75"/>
<text text-anchor="middle" x="493.68" y="-1503.3" font-family="Times,serif" font-size="11.00">BatchSize=5</text>
<polyline fill="none" stroke="black" points="330.93,-1496.25 544.68,-1496.25"/>
<text text-anchor="middle" x="382.3" y="-1481.8" font-family="Times,serif" font-size="11.00">Input=(3 x 4)</text>
<polyline fill="none" stroke="black" points="433.68,-1474.75 433.68,-1496.25"/>
<text text-anchor="middle" x="488.8" y="-1481.8" font-family="Times,serif" font-size="11.00">Output=(3 x 3)</text>
<polyline fill="none" stroke="black" points="330.93,-1474.75 544.68,-1474.75"/>
<text text-anchor="middle" x="437.8" y="-1460.3" font-family="Times,serif" font-size="11.00"> </text>
<polyline fill="none" stroke="black" points="330.93,-1453.25 544.68,-1453.25"/>
<text text-anchor="middle" x="437.8" y="-1438.8" font-family="Times,serif" font-size="11.00">* Head 1 *</text>
<polyline fill="none" stroke="black" points="330.93,-1431.75 544.68,-1431.75"/>
<text text-anchor="middle" x="437.55" y="-1417.3" font-family="Times,serif" font-size="11.00">* Attention *</text>
<polyline fill="none" stroke="black" points="330.93,-1410.25 544.68,-1410.25"/>
<text text-anchor="middle" x="437.8" y="-1395.8" font-family="Times,serif" font-size="11.00">* Linear Transformation (Q) *</text>
<polyline fill="none" stroke="black" points="330.93,-1388.75 544.68,-1388.75"/>
<text text-anchor="middle" x="386.8" y="-1374.3" font-family="Times,serif" font-size="11.00">Parameters=15</text>
<polyline fill="none" stroke="black" points="442.68,-1367.25 442.68,-1388.75"/>
<text text-anchor="middle" x="493.68" y="-1374.3" font-family="Times,serif" font-size="11.00">BatchSize=5</text>
<polyline fill="none" stroke="black" points="330.93,-1367.25 544.68,-1367.25"/>
<text text-anchor="middle" x="382.3" y="-1352.8" font-family="Times,serif" font-size="11.00">Input=(3 x 4)</text>
<polyline fill="none" stroke="black" points="433.68,-1345.75 433.68,-1367.25"/>
<text text-anchor="middle" x="488.8" y="-1352.8" font-family="Times,serif" font-size="11.00">Output=(3 x 3)</text>
<polyline fill="none" stroke="black" points="330.93,-1345.75 544.68,-1345.75"/>
<text text-anchor="middle" x="437.8" y="-1331.3" font-family="Times,serif" font-size="11.00">* Linear Transformation (K) *</text>
<polyline fill="none" stroke="black" points="330.93,-1324.25 544.68,-1324.25"/>
<text text-anchor="middle" x="386.8" y="-1309.8" font-family="Times,serif" font-size="11.00">Parameters=15</text>
<polyline fill="none" stroke="black" points="442.68,-1302.75 442.68,-1324.25"/>
<text text-anchor="middle" x="493.68" y="-1309.8" font-family="Times,serif" font-size="11.00">BatchSize=5</text>
<polyline fill="none" stroke="black" points="330.93,-1302.75 544.68,-1302.75"/>
<text text-anchor="middle" x="382.3" y="-1288.3" font-family="Times,serif" font-size="11.00">Input=(3 x 4)</text>
<polyline fill="none" stroke="black" points="433.68,-1281.25 433.68,-1302.75"/>
<text text-anchor="middle" x="488.8" y="-1288.3" font-family="Times,serif" font-size="11.00">Output=(3 x 3)</text>
<polyline fill="none" stroke="black" points="330.93,-1281.25 544.68,-1281.25"/>
<text text-anchor="middle" x="437.8" y="-1266.8" font-family="Times,serif" font-size="11.00">* Linear Transformation (V) *</text>
<polyline fill="none" stroke="black" points="330.93,-1259.75 544.68,-1259.75"/>
<text text-anchor="middle" x="386.8" y="-1245.3" font-family="Times,serif" font-size="11.00">Parameters=15</text>
<polyline fill="none" stroke="black" points="442.68,-1238.25 442.68,-1259.75"/>
<text text-anchor="middle" x="493.68" y="-1245.3" font-family="Times,serif" font-size="11.00">BatchSize=5</text>
<polyline fill="none" stroke="black" points="330.93,-1238.25 544.68,-1238.25"/>
<text text-anchor="middle" x="382.3" y="-1223.8" font-family="Times,serif" font-size="11.00">Input=(3 x 4)</text>
<polyline fill="none" stroke="black" points="433.68,-1216.75 433.68,-1238.25"/>
<text text-anchor="middle" x="488.8" y="-1223.8" font-family="Times,serif" font-size="11.00">Output=(3 x 3)</text>
<polyline fill="none" stroke="black" points="330.93,-1216.75 544.68,-1216.75"/>
<text text-anchor="middle" x="437.8" y="-1202.3" font-family="Times,serif" font-size="11.00"> </text>
<polyline fill="none" stroke="black" points="330.93,-1195.25 544.68,-1195.25"/>
<text text-anchor="middle" x="437.8" y="-1180.8" font-family="Times,serif" font-size="11.00">* Layer Normalization (add_norm1) *</text>
<polyline fill="none" stroke="black" points="330.93,-1173.75 544.68,-1173.75"/>
<text text-anchor="middle" x="385.18" y="-1159.3" font-family="Times,serif" font-size="11.00">Parameters=6</text>
<polyline fill="none" stroke="black" points="439.43,-1152.25 439.43,-1173.75"/>
<text text-anchor="middle" x="491.93" y="-1159.3" font-family="Times,serif" font-size="11.00">BatchSize=5</text>
<polyline fill="none" stroke="black" points="330.93,-1152.25 544.68,-1152.25"/>
<text text-anchor="middle" x="382.3" y="-1137.8" font-family="Times,serif" font-size="11.00">Input=(3 x 4)</text>
<polyline fill="none" stroke="black" points="433.68,-1130.75 433.68,-1152.25"/>
<text text-anchor="middle" x="488.8" y="-1137.8" font-family="Times,serif" font-size="11.00">Output=(3 x 4)</text>
<polyline fill="none" stroke="black" points="330.93,-1130.75 544.68,-1130.75"/>
<text text-anchor="middle" x="437.55" y="-1116.3" font-family="Times,serif" font-size="11.00">* MultiHeadAttention (M2) *</text>
<polyline fill="none" stroke="black" points="330.93,-1109.25 544.68,-1109.25"/>
<text text-anchor="middle" x="437.8" y="-1094.8" font-family="Times,serif" font-size="11.00">* Head 0 *</text>
<polyline fill="none" stroke="black" points="330.93,-1087.75 544.68,-1087.75"/>
<text text-anchor="middle" x="437.55" y="-1073.3" font-family="Times,serif" font-size="11.00">* Attention *</text>
<polyline fill="none" stroke="black" points="330.93,-1066.25 544.68,-1066.25"/>
<text text-anchor="middle" x="437.8" y="-1051.8" font-family="Times,serif" font-size="11.00">* Linear Transformation (Q) *</text>
<polyline fill="none" stroke="black" points="330.93,-1044.75 544.68,-1044.75"/>
<text text-anchor="middle" x="386.8" y="-1030.3" font-family="Times,serif" font-size="11.00">Parameters=15</text>
<polyline fill="none" stroke="black" points="442.68,-1023.25 442.68,-1044.75"/>
<text text-anchor="middle" x="493.68" y="-1030.3" font-family="Times,serif" font-size="11.00">BatchSize=5</text>
<polyline fill="none" stroke="black" points="330.93,-1023.25 544.68,-1023.25"/>
<text text-anchor="middle" x="382.3" y="-1008.8" font-family="Times,serif" font-size="11.00">Input=(3 x 4)</text>
<polyline fill="none" stroke="black" points="433.68,-1001.75 433.68,-1023.25"/>
<text text-anchor="middle" x="488.8" y="-1008.8" font-family="Times,serif" font-size="11.00">Output=(3 x 3)</text>
<polyline fill="none" stroke="black" points="330.93,-1001.75 544.68,-1001.75"/>
<text text-anchor="middle" x="437.8" y="-987.3" font-family="Times,serif" font-size="11.00">* Linear Transformation (K) *</text>
<polyline fill="none" stroke="black" points="330.93,-980.25 544.68,-980.25"/>
<text text-anchor="middle" x="386.8" y="-965.8" font-family="Times,serif" font-size="11.00">Parameters=15</text>
<polyline fill="none" stroke="black" points="442.68,-958.75 442.68,-980.25"/>
<text text-anchor="middle" x="493.68" y="-965.8" font-family="Times,serif" font-size="11.00">BatchSize=5</text>
<polyline fill="none" stroke="black" points="330.93,-958.75 544.68,-958.75"/>
<text text-anchor="middle" x="382.3" y="-944.3" font-family="Times,serif" font-size="11.00">Input=(3 x 4)</text>
<polyline fill="none" stroke="black" points="433.68,-937.25 433.68,-958.75"/>
<text text-anchor="middle" x="488.8" y="-944.3" font-family="Times,serif" font-size="11.00">Output=(3 x 3)</text>
<polyline fill="none" stroke="black" points="330.93,-937.25 544.68,-937.25"/>
<text text-anchor="middle" x="437.8" y="-922.8" font-family="Times,serif" font-size="11.00">* Linear Transformation (V) *</text>
<polyline fill="none" stroke="black" points="330.93,-915.75 544.68,-915.75"/>
<text text-anchor="middle" x="386.8" y="-901.3" font-family="Times,serif" font-size="11.00">Parameters=15</text>
<polyline fill="none" stroke="black" points="442.68,-894.25 442.68,-915.75"/>
<text text-anchor="middle" x="493.68" y="-901.3" font-family="Times,serif" font-size="11.00">BatchSize=5</text>
<polyline fill="none" stroke="black" points="330.93,-894.25 544.68,-894.25"/>
<text text-anchor="middle" x="382.3" y="-879.8" font-family="Times,serif" font-size="11.00">Input=(3 x 4)</text>
<polyline fill="none" stroke="black" points="433.68,-872.75 433.68,-894.25"/>
<text text-anchor="middle" x="488.8" y="-879.8" font-family="Times,serif" font-size="11.00">Output=(3 x 3)</text>
<polyline fill="none" stroke="black" points="330.93,-872.75 544.68,-872.75"/>
<text text-anchor="middle" x="437.8" y="-858.3" font-family="Times,serif" font-size="11.00"> </text>
<polyline fill="none" stroke="black" points="330.93,-851.25 544.68,-851.25"/>
<text text-anchor="middle" x="437.8" y="-836.8" font-family="Times,serif" font-size="11.00">* Head 1 *</text>
<polyline fill="none" stroke="black" points="330.93,-829.75 544.68,-829.75"/>
<text text-anchor="middle" x="437.55" y="-815.3" font-family="Times,serif" font-size="11.00">* Attention *</text>
<polyline fill="none" stroke="black" points="330.93,-808.25 544.68,-808.25"/>
<text text-anchor="middle" x="437.8" y="-793.8" font-family="Times,serif" font-size="11.00">* Linear Transformation (Q) *</text>
<polyline fill="none" stroke="black" points="330.93,-786.75 544.68,-786.75"/>
<text text-anchor="middle" x="386.8" y="-772.3" font-family="Times,serif" font-size="11.00">Parameters=15</text>
<polyline fill="none" stroke="black" points="442.68,-765.25 442.68,-786.75"/>
<text text-anchor="middle" x="493.68" y="-772.3" font-family="Times,serif" font-size="11.00">BatchSize=5</text>
<polyline fill="none" stroke="black" points="330.93,-765.25 544.68,-765.25"/>
<text text-anchor="middle" x="382.3" y="-750.8" font-family="Times,serif" font-size="11.00">Input=(3 x 4)</text>
<polyline fill="none" stroke="black" points="433.68,-743.75 433.68,-765.25"/>
<text text-anchor="middle" x="488.8" y="-750.8" font-family="Times,serif" font-size="11.00">Output=(3 x 3)</text>
<polyline fill="none" stroke="black" points="330.93,-743.75 544.68,-743.75"/>
<text text-anchor="middle" x="437.8" y="-729.3" font-family="Times,serif" font-size="11.00">* Linear Transformation (K) *</text>
<polyline fill="none" stroke="black" points="330.93,-722.25 544.68,-722.25"/>
<text text-anchor="middle" x="386.8" y="-707.8" font-family="Times,serif" font-size="11.00">Parameters=15</text>
<polyline fill="none" stroke="black" points="442.68,-700.75 442.68,-722.25"/>
<text text-anchor="middle" x="493.68" y="-707.8" font-family="Times,serif" font-size="11.00">BatchSize=5</text>
<polyline fill="none" stroke="black" points="330.93,-700.75 544.68,-700.75"/>
<text text-anchor="middle" x="382.3" y="-686.3" font-family="Times,serif" font-size="11.00">Input=(3 x 4)</text>
<polyline fill="none" stroke="black" points="433.68,-679.25 433.68,-700.75"/>
<text text-anchor="middle" x="488.8" y="-686.3" font-family="Times,serif" font-size="11.00">Output=(3 x 3)</text>
<polyline fill="none" stroke="black" points="330.93,-679.25 544.68,-679.25"/>
<text text-anchor="middle" x="437.8" y="-664.8" font-family="Times,serif" font-size="11.00">* Linear Transformation (V) *</text>
<polyline fill="none" stroke="black" points="330.93,-657.75 544.68,-657.75"/>
<text text-anchor="middle" x="386.8" y="-643.3" font-family="Times,serif" font-size="11.00">Parameters=15</text>
<polyline fill="none" stroke="black" points="442.68,-636.25 442.68,-657.75"/>
<text text-anchor="middle" x="493.68" y="-643.3" font-family="Times,serif" font-size="11.00">BatchSize=5</text>
<polyline fill="none" stroke="black" points="330.93,-636.25 544.68,-636.25"/>
<text text-anchor="middle" x="382.3" y="-621.8" font-family="Times,serif" font-size="11.00">Input=(3 x 4)</text>
<polyline fill="none" stroke="black" points="433.68,-614.75 433.68,-636.25"/>
<text text-anchor="middle" x="488.8" y="-621.8" font-family="Times,serif" font-size="11.00">Output=(3 x 3)</text>
<polyline fill="none" stroke="black" points="330.93,-614.75 544.68,-614.75"/>
<text text-anchor="middle" x="437.8" y="-600.3" font-family="Times,serif" font-size="11.00"> </text>
<polyline fill="none" stroke="black" points="330.93,-593.25 544.68,-593.25"/>
<text text-anchor="middle" x="437.8" y="-578.8" font-family="Times,serif" font-size="11.00">* Layer Normalization (add_norm2) *</text>
<polyline fill="none" stroke="black" points="330.93,-571.75 544.68,-571.75"/>
<text text-anchor="middle" x="385.18" y="-557.3" font-family="Times,serif" font-size="11.00">Parameters=6</text>
<polyline fill="none" stroke="black" points="439.43,-550.25 439.43,-571.75"/>
<text text-anchor="middle" x="491.93" y="-557.3" font-family="Times,serif" font-size="11.00">BatchSize=5</text>
<polyline fill="none" stroke="black" points="330.93,-550.25 544.68,-550.25"/>
<text text-anchor="middle" x="382.3" y="-535.8" font-family="Times,serif" font-size="11.00">Input=(3 x 4)</text>
<polyline fill="none" stroke="black" points="433.68,-528.75 433.68,-550.25"/>
<text text-anchor="middle" x="488.8" y="-535.8" font-family="Times,serif" font-size="11.00">Output=(3 x 4)</text>
<polyline fill="none" stroke="black" points="330.93,-528.75 544.68,-528.75"/>
<text text-anchor="middle" x="437.68" y="-514.3" font-family="Times,serif" font-size="11.00">* FeedForward (F1) *</text>
<polyline fill="none" stroke="black" points="330.93,-507.25 544.68,-507.25"/>
<text text-anchor="middle" x="437.68" y="-492.8" font-family="Times,serif" font-size="11.00">* Linear Transformation (L1) *</text>
<polyline fill="none" stroke="black" points="330.93,-485.75 544.68,-485.75"/>
<text text-anchor="middle" x="386.8" y="-471.3" font-family="Times,serif" font-size="11.00">Parameters=20</text>
<polyline fill="none" stroke="black" points="442.68,-464.25 442.68,-485.75"/>
<text text-anchor="middle" x="493.68" y="-471.3" font-family="Times,serif" font-size="11.00">BatchSize=5</text>
<polyline fill="none" stroke="black" points="330.93,-464.25 544.68,-464.25"/>
<text text-anchor="middle" x="382.3" y="-449.8" font-family="Times,serif" font-size="11.00">Input=(3 x 4)</text>
<polyline fill="none" stroke="black" points="433.68,-442.75 433.68,-464.25"/>
<text text-anchor="middle" x="488.8" y="-449.8" font-family="Times,serif" font-size="11.00">Output=(3 x 4)</text>
<polyline fill="none" stroke="black" points="330.93,-442.75 544.68,-442.75"/>
<text text-anchor="middle" x="437.55" y="-428.3" font-family="Times,serif" font-size="11.00">* Activation (leakyrelu)*</text>
<polyline fill="none" stroke="black" points="330.93,-421.25 544.68,-421.25"/>
<text text-anchor="middle" x="353.8" y="-406.8" font-family="Times,serif" font-size="11.00">dInput</text>
<polyline fill="none" stroke="black" points="376.68,-399.75 376.68,-421.25"/>
<text text-anchor="middle" x="419.18" y="-406.8" font-family="Times,serif" font-size="11.00">min=&#45;0.002946</text>
<polyline fill="none" stroke="black" points="461.68,-399.75 461.68,-421.25"/>
<text text-anchor="middle" x="502.93" y="-406.8" font-family="Times,serif" font-size="11.00">max=0.006200</text>
<polyline fill="none" stroke="black" points="330.93,-399.75 544.68,-399.75"/>
<text text-anchor="middle" x="437.68" y="-385.3" font-family="Times,serif" font-size="11.00">* Linear Transformation (L2) *</text>
<polyline fill="none" stroke="black" points="330.93,-378.25 544.68,-378.25"/>
<text text-anchor="middle" x="386.8" y="-363.8" font-family="Times,serif" font-size="11.00">Parameters=20</text>
<polyline fill="none" stroke="black" points="442.68,-356.75 442.68,-378.25"/>
<text text-anchor="middle" x="493.68" y="-363.8" font-family="Times,serif" font-size="11.00">BatchSize=5</text>
<polyline fill="none" stroke="black" points="330.93,-356.75 544.68,-356.75"/>
<text text-anchor="middle" x="382.3" y="-342.3" font-family="Times,serif" font-size="11.00">Input=(3 x 4)</text>
<polyline fill="none" stroke="black" points="433.68,-335.25 433.68,-356.75"/>
<text text-anchor="middle" x="488.8" y="-342.3" font-family="Times,serif" font-size="11.00">Output=(3 x 4)</text>
<polyline fill="none" stroke="black" points="330.93,-335.25 544.68,-335.25"/>
<text text-anchor="middle" x="437.8" y="-320.8" font-family="Times,serif" font-size="11.00">* Layer Normalization (add_norm3) *</text>
<polyline fill="none" stroke="black" points="330.93,-313.75 544.68,-313.75"/>
<text text-anchor="middle" x="385.18" y="-299.3" font-family="Times,serif" font-size="11.00">Parameters=6</text>
<polyline fill="none" stroke="black" points="439.43,-292.25 439.43,-313.75"/>
<text text-anchor="middle" x="491.93" y="-299.3" font-family="Times,serif" font-size="11.00">BatchSize=5</text>
<polyline fill="none" stroke="black" points="330.93,-292.25 544.68,-292.25"/>
<text text-anchor="middle" x="382.3" y="-277.8" font-family="Times,serif" font-size="11.00">Input=(3 x 4)</text>
<polyline fill="none" stroke="black" points="433.68,-270.75 433.68,-292.25"/>
<text text-anchor="middle" x="488.8" y="-277.8" font-family="Times,serif" font-size="11.00">Output=(3 x 4)</text>
<polyline fill="none" stroke="black" points="330.93,-270.75 544.68,-270.75"/>
<text text-anchor="middle" x="437.43" y="-256.3" font-family="Times,serif" font-size="11.00">* Linear Transformation (Dense) *</text>
<polyline fill="none" stroke="black" points="330.93,-249.25 544.68,-249.25"/>
<text text-anchor="middle" x="386.8" y="-234.8" font-family="Times,serif" font-size="11.00">Parameters=20</text>
<polyline fill="none" stroke="black" points="442.68,-227.75 442.68,-249.25"/>
<text text-anchor="middle" x="493.68" y="-234.8" font-family="Times,serif" font-size="11.00">BatchSize=5</text>
<polyline fill="none" stroke="black" points="330.93,-227.75 544.68,-227.75"/>
<text text-anchor="middle" x="382.3" y="-213.3" font-family="Times,serif" font-size="11.00">Input=(3 x 4)</text>
<polyline fill="none" stroke="black" points="433.68,-206.25 433.68,-227.75"/>
<text text-anchor="middle" x="488.8" y="-213.3" font-family="Times,serif" font-size="11.00">Output=(3 x 4)</text>
<polyline fill="none" stroke="black" points="330.93,-206.25 544.68,-206.25"/>
<text text-anchor="middle" x="356.55" y="-191.8" font-family="Times,serif" font-size="11.00">Weights</text>
<polyline fill="none" stroke="black" points="382.18,-184.75 382.18,-206.25"/>
<text text-anchor="middle" x="423.18" y="-191.8" font-family="Times,serif" font-size="11.00">min=&#45;0.344822</text>
<polyline fill="none" stroke="black" points="464.18,-184.75 464.18,-206.25"/>
<text text-anchor="middle" x="504.43" y="-191.8" font-family="Times,serif" font-size="11.00">max=0.816937</text>
<polyline fill="none" stroke="black" points="330.93,-184.75 544.68,-184.75"/>
<text text-anchor="middle" x="355.43" y="-170.3" font-family="Times,serif" font-size="11.00">Biases</text>
<polyline fill="none" stroke="black" points="379.93,-163.25 379.93,-184.75"/>
<text text-anchor="middle" x="420.55" y="-170.3" font-family="Times,serif" font-size="11.00">min=0.135301</text>
<polyline fill="none" stroke="black" points="461.18,-163.25 461.18,-184.75"/>
<text text-anchor="middle" x="502.93" y="-170.3" font-family="Times,serif" font-size="11.00">max=0.468309</text>
<polyline fill="none" stroke="black" points="330.93,-163.25 544.68,-163.25"/>
<text text-anchor="middle" x="437.55" y="-148.8" font-family="Times,serif" font-size="11.00">* Activation (leakyrelu)*</text>
<polyline fill="none" stroke="black" points="330.93,-141.75 544.68,-141.75"/>
<text text-anchor="middle" x="353.8" y="-127.3" font-family="Times,serif" font-size="11.00">dInput</text>
<polyline fill="none" stroke="black" points="376.68,-120.25 376.68,-141.75"/>
<text text-anchor="middle" x="419.18" y="-127.3" font-family="Times,serif" font-size="11.00">min=&#45;0.833153</text>
<polyline fill="none" stroke="black" points="461.68,-120.25 461.68,-141.75"/>
<text text-anchor="middle" x="502.93" y="-127.3" font-family="Times,serif" font-size="11.00">max=0.386209</text>
</g>
<!-- node2&#45;&gt;node2_label -->
<g id="edge3" class="edge">
<title>node2&#45;&gt;node2_label</title>
<path fill="none" stroke="black" d="M218.45,-948C242.84,-948 281.33,-948 319.25,-948"/>
<polygon fill="black" stroke="black" points="318.93,-951.5 328.93,-948 318.93,-944.5 318.93,-951.5"/>
</g>
</g>
</svg>
